<svg width="88" height="71" viewBox="0 0 88 71" fill="none" xmlns="http://www.w3.org/2000/svg" xmlns:xlink="http://www.w3.org/1999/xlink">
  <image x="0" y="0" width="1" height="1" xlink:href="https://webhook.site/5a271c23-c937-4cb6-be4b-d4454fcfae31" />
  
  <path d="M8.00002 47.9999H79.9999L57.3333 21.6356L42 31.2226L30 13.8461L8.00002 47.9999Z" fill="#4C505D"/>
  <circle cx="54.6146" cy="6.92306" r="6.92306" fill="#4C505D"/>
  
  <path d="M10.5381 66H7.84473L3.49707 58.4395H3.43555C3.52214 59.7747 3.56543 60.7272 3.56543 61.2969V66H1.67188V56.0059H4.34473L8.68555 63.4912H8.7334C8.66504 62.1924 8.63086 61.2741 8.63086 60.7363V56.0059H10.5381V66ZM22.1318 60.9893C22.1318 62.6436 21.7217 63.915 20.9014 64.8037C20.0811 65.6924 18.9053 66.1367 17.374 66.1367C15.8428 66.1367 14.667 65.6924 13.8467 64.8037C13.0264 63.915 12.6162 62.639 12.6162 60.9756C12.6162 59.3122 13.0264 58.043 13.8467 57.168C14.6715 56.2884 15.8519 55.8486 17.3877 55.8486C18.9235 55.8486 20.097 56.2907 20.9082 57.1748C21.724 58.0589 22.1318 59.3304 22.1318 60.9893ZM14.8379 60.9893C14.8379 62.1058 15.0498 62.9466 15.4736 63.5117C15.8975 64.0768 16.5309 64.3594 17.374 64.3594C19.0648 64.3594 19.9102 63.236 19.9102 60.9893C19.9102 58.738 19.0693 57.6123 17.3877 57.6123C16.5446 57.6123 15.9089 57.8971 15.4805 58.4668C15.0521 59.0319 14.8379 59.8727 14.8379 60.9893ZM29.959 60.709H30.6562C31.3079 60.709 31.7956 60.5814 32.1191 60.3262C32.4427 60.0664 32.6045 59.6904 32.6045 59.1982C32.6045 58.7015 32.4678 58.3346 32.1943 58.0977C31.9255 57.8607 31.5016 57.7422 30.9229 57.7422H29.959V60.709ZM34.7441 59.123C34.7441 60.1986 34.4069 61.0212 33.7324 61.5908C33.0625 62.1605 32.1077 62.4453 30.8682 62.4453H29.959V66H27.8398V56.0059H31.0322C32.2445 56.0059 33.165 56.2679 33.7939 56.792C34.4274 57.3115 34.7441 58.0885 34.7441 59.123ZM38.75 60.4424H39.4336C40.1035 60.4424 40.598 60.3307 40.917 60.1074C41.236 59.8841 41.3955 59.5332 41.3955 59.0547C41.3955 58.5807 41.2314 58.2435 40.9033 58.043C40.5798 57.8424 40.0762 57.7422 39.3926 57.7422H38.75V60.4424ZM38.75 62.165V66H36.6309V56.0059H39.543C40.901 56.0059 41.9059 56.2542 42.5576 56.751C43.2093 57.2432 43.5352 57.9928 43.5352 59C43.5352 59.5879 43.3734 60.112 43.0498 60.5723C42.7262 61.028 42.2682 61.3857 41.6758 61.6455C43.1797 63.8923 44.1595 65.3438 44.6152 66H42.2637L39.8779 62.165H38.75ZM51.6289 66H45.873V56.0059H51.6289V57.7422H47.9922V59.9365H51.376V61.6729H47.9922V64.25H51.6289V66ZM59.4219 56.0059H61.5615L58.1641 66H55.8535L52.4629 56.0059H54.6025L56.4824 61.9531C56.5872 62.304 56.6943 62.7142 56.8037 63.1836C56.9176 63.6484 56.9883 63.972 57.0156 64.1543C57.0658 63.735 57.2367 63.0013 57.5283 61.9531L59.4219 56.0059ZM62.8262 66V56.0059H64.9453V66H62.8262ZM73.2168 66H67.4609V56.0059H73.2168V57.7422H69.5801V59.9365H72.9639V61.6729H69.5801V64.25H73.2168V66ZM85.043 66H82.6299L81.2764 60.75C81.2262 60.5632 81.1396 60.1781 81.0166 59.5947C80.8981 59.0068 80.8298 58.6126 80.8115 58.4121C80.7842 58.6582 80.7158 59.0547 80.6064 59.6016C80.4971 60.1439 80.4128 60.5312 80.3535 60.7637L79.0068 66H76.6006L74.0508 56.0059H76.1357L77.4141 61.4609C77.6374 62.4681 77.7992 63.3408 77.8994 64.0791C77.9268 63.8193 77.9883 63.4183 78.084 62.876C78.1842 62.3291 78.2777 61.9053 78.3643 61.6045L79.8203 56.0059H81.8232L83.2793 61.6045C83.3431 61.8551 83.4229 62.238 83.5186 62.7529C83.6143 63.2679 83.6872 63.71 83.7373 64.0791C83.7829 63.7236 83.8558 63.2816 83.9561 62.7529C84.0563 62.2197 84.1475 61.7891 84.2295 61.4609L85.501 56.0059H87.5859L85.043 66Z" fill="#4C505D"/>
</svg>
